<?xml version="1.0" encoding="UTF-8"?>
<svg id="Layer_1" xmlns="http://www.w3.org/2000/svg" version="1.1" viewBox="0 0 554.7 615.8">
  <!-- Generator: Adobe Illustrator 30.1.0, SVG Export Plug-In . SVG Version: 2.1.1 Build 136)  -->
  <defs>
    <style>
      .st0 {
        fill: #eb9605;
      }

      .st1 {
        fill: #fff;
      }

      .st2 {
        fill: none;
        stroke: #eb9605;
        stroke-miterlimit: 10;
        stroke-width: 34px;
      }
    </style>
  </defs>
  <rect class="st0" x="17.7" y="19.7" width="519.2" height="576.4"/>
  <path class="st1" d="M74.2,37.6h354.2c2.6,0,4.7,2.1,4.7,4.7v392.6c0,2.6-2.1,4.7-4.7,4.7H42.9c-2.6,0-4.7-2.1-4.7-4.7V73.6c0-19.9,16.1-36,36-36Z"/>
  <path class="st0" d="M354.5,19.7l-4.9,3.9c-.8-1.3-1.5-2.6-2.3-3.9h-84c1.6,3.7,3.5,7.3,4.8,11.2,1.8,5.4-.8,9.1-6.1,7.4-7.4-2.3-12.2,2.9-18.2,4.4-3.9.9-7.6,2.6-11.4,4.1-1.9.6-3.6,1.4-5.2,2.5-8.1,6.7-16.2,13.6-24.2,20.5-4.8,4.2-9.7,8.5-14.2,13-5.1,5.1-9.9,10.5-15.1,15.6-6.4,6.4-9.7,14.6-13.2,22.7-2,5-4.4,9.7-7.3,14.2-4.2,6.2-4.5,13.3-6,20.1-2.4,11.1-1.1,22.3.2,33.5,1.5,12,1.9,24.2,2.7,36.3,0,.6-.2,1.4,0,1.8,3.7,4.8.5,9.3-.3,14-.8,5-.9,10.1-1.6,15.1-.8,5.9-2,11.8-2.9,17.7-1.9,11.4,1.1,20.7,11.3,27.2,6,3.9,11.2,9,18.6,10.8,1.5.4,2.2,4.9,2.9,7.6.9,3.4,1.4,6.9,2.2,10.3.6,2.9,1.9,5.6,2,8.5.4,6.1.3,12.3.4,18.5v11.6c-3.8,1.5-6.7,2.3-9.2,3.7-16.9,9-33.7,18.1-51.2,27.6-.6.5-1.3.8-2,1.2-3.1,1.3-5.7,3.4-8.5,5.2-1.2.8-2.5,1.4-3.9,2h0v60.5h72.5c.7-3.7,1.4-7,2.3-11.7.8,2.2,1.6,3.5,1.7,4.8.6,6.6.7,6.8,7.1,6.8h68.9c-10.1-6.8-20.8-13.3-30.7-20.7-10-7.5-17.8-17.5-22.7-29,3.6,3.2,7.2,6.4,10.9,9.6,13.5,11.6,27.6,22.2,44.6,28.4s34.3,5.8,51.5,1.4c5.6-1.4,10.7-4.6,15.9-7.3,1.1-.6,1.7-2.2,2.4-3.3l-4.9-1.5-3.3,4-1.6-.3v-7l6.5.4c.4-2.8,1.9-6.4,1-9.2-1.9-5.7,1.9-9.8,2.8-14.7.8-4,1.8-8,3-11.9.8-2.8,2.1-5.4,3.5-9.1l-5.1,1.4c-1.6-3.5-3.4-7-4.7-10.6-.5-1.4.1-3.3.7-4.7,1.2-3.2,3.1-6.2,3.8-9.5.6-2.5-.2-5.4,0-8.1.1-1.9.3-4.1,1.5-5.3,2.2-2.5,1.2-3.5-1.5-5-.9,3.9-3,6.1-6.9,7-3.3.7-2.3,3.3-1.3,5.8,1.3,3.1,2.2,6.4,3.2,9.4-3.4,0-5.7.4-7.8-.1-1.8-.5-3.4-1.9-5.1-3,1-1.1,1.8-2.4,2.5-3.7.7-1.5,1.1-3.2,1.2-4.9,0-2.1-1.3-4.4-1-6.4.4-3.3,1.8-6.4-2.2-8.5-.8-.4-.7-2.4-.9-3.7-.4-2.4-.8-4.7-1.2-7.1-.1-.7-.3-1.8,0-2.1,6.7-5.3,8-13.4,10.2-20.7,2.4-7.7,3.6-15.8,3.7-23.9,0-7.7-2.5-15.3-3.8-23-2.1-12.2-10.1-18.4-21.4-21.6-2.8-1-5.5-2.1-8.2-3.4,1.1-.8,2.3-1.8,3.6-2.7,2.7-1.9,3.5-4,2.8-7.7-.5-2.4,1.4-6,3.3-7.9s5.1-3,8-3.9c5.4-1.7,7.7-10.3,3.7-14.5-4.6-4.9-11.2-5-16.2,0-1.8,1.8-3.3,3.7-4.9,5.6-3.3-5.3-6.7-10.1-9.5-15.3-1.2-2.2-.9-5.3-1.3-7.9,0-.7,0-1.5-.1-2.2-1.9-5.6-4.1-11-5.9-16.6-.6-1.7-.5-3.7-.8-5.5-1.8-11.6-3.3-23.3-5.7-34.8-.6-2.9-4.2-5.1-6.6-7.6-.8-.9-1.7-1.6-2.7-2.2-1.5-.9-3.1-2.4-4.6-2.4-9.6-.2-19.2-2.4-28.5,2.3-7.4,3.7-15.3,6.7-24.3,10.7,1.9-2.6,3.2-4.6,4.7-6.3,3.3-3.8,2.7-8.5-1.7-10.9,0-.3,0-.7.1-.8,2-1.5,5.6-2.6,5.9-4.3.5-3.5-.4-7.4-1.3-11-.9-3.2-4.8-3.4-7.1-.5-.9,1.3-1.6,2.7-2.2,4.2-3.9-1.4-6.6-1.2-8,3.7-1.2,4-5,1-7.3.5-2.1-.5-3.9-2.6-6.8-4.8,4.4-4.7,8.5-9.5,13-14s5.2-3.6,7.4-5.7c8.6-8.1,19.6-11.5,30.4-15,5.6-1.8,11.7-2.4,17.5-3.8,4.5-1.1,8.8-2.8,13.2-4.1,2.3-.7,4.8-.9,7.1-1.7,2.1-.6,4.1-1.6,5.9-2.9,4.9-4.1,9.8-4.2,15.5-1.8,4,1.7,8.4,2.2,12.6,3.3,1.2.3,2.5.3,3.5.8,15.9,9.4,31.9,18.8,45.4,31.7,2,2,3.8,4.3,5.3,6.6,4.3,6.2,8.8,12.3,12.4,18.9,2,3.6,2.5,8.1,3.6,12.2.2.7-.2,1.7.2,2.1,4.5,4.7,1.4,10.2,1.7,15.3.1,1.7.5,3.4,1.1,4.9,1.4,3.4,4.1,6.5.7,10.3-.4.5,0,1.9.3,2.8,3.3,14.4,7.6,28.6,6.1,43.9-.6,5.8,1.6,11.9,2.6,17.8l2.1-.2c-.1-1.5-.2-3.1-.4-4.6-.2-2.2-1.2-4.6-.5-6.5.7-2.1,2.7-5.2,4.3-5.3,2.9-.1,5.7.9,7.7,2.9,3.5,3.9,4.2,9.1,4.2,14.4s.7,6.1,2.2,8.8c4.4,7.1,6.4,15,7.6,22.9,1.5,10.1-6,23.4-15.2,28-4.1,2.1-8.3,2.7-11.7-1.2-.5.3-1,.3-1,.5-2.2,9.1-5.7,18.2-6,27.4-.5,14.4,1.1,28.8,1.9,43.2.2,3.3.9,6.6,1.2,9.8.1,1.7,0,3.5-.3,5.2-.3,2-1,4-1.3,6-1.6,10.4-2.4,20.9-4.7,31.1-3.5,15.4-12.8,27.3-23.7,38.2-8.5,8.3-18.2,15.3-28.9,20.5-1,.6-1.9,1.3-2.8,2,2.6.1,4.2.3,5.7.3h115.5c1.4.1,2.7.2,4.1.2V19.7h-92.6ZM169.6,402.4c1.1.2,3.1.1,3.1.5.2,1.9.3,3.8.1,5.7l-3.6.9c.1-2.7.2-4.9.3-7.2h0ZM174.1,434.6c-.8-.5-2.2-.8-2.3-1.4-.5-2.2-.9-4.5-1.1-6.8l1-.4c1.3,1.8,2.5,3.7,3.6,5.7.3.6-.7,1.9-1.2,2.8h0ZM318.5,382.9c1.8-.8,3.7-1.1,5.6-.9,1.2.2,2.2,1.9,4.1,3.6-2.6.9-4.3,1.9-6.1,1.9s-3.2-1.1-4.8-1.8c.4-1,.6-2.6,1.3-2.9h-.1ZM303.6,337.7c-.5.6-2.1.1-3.2.2-1.3.1-2.7.4-4,.6-1.2.1-2.6.5-3.4,0-1.9-1.3-3.6-2.7-5.3-4.2l20.9-4c-1.7,2.6-3.2,5.1-5,7.4h0ZM276.5,267.7c.2-.7.5-1.3.8-2l3.8,1.8c1.8-2.2,3.7-4.3,5.7-6.3,2.8-2.5,4.9-.3,7,2,5.3-5.2,5.4-5.3,12-1.3,2.5,1.4,4.8,3.2,6.7,5.3,1.5,1.8.8,4-1.9,4.3-9.1.9-18.2,1.7-27.4,2.5-.4,0-.9,0-1.3.1l-5.8.2c.1-2.2.2-4.4.4-6.5h0ZM262.3,305c1,3,2.1,5.9,3.2,8.9l-2,.7c-1.1-2.9-2.2-5.9-3.3-8.8l2.1-.8h0ZM218.8,164.2c4.2-5.2,9.5-8.7,14.9-8.8,7.4,0,12.2,2.9,13,7,.2,1.1-.4,2.5-.7,3.7-1-.4-2.2-.5-3.1-1.2-8.6-7-12.2-6.3-18.5,3.2-.7,1.1-3.4,1.9-4.7,1.4-2.2-.9-2.6-3.2-.9-5.2h0ZM199.2,212c0-6.8,5.6-15.6,12.2-17,3.3-.7,7.1,1.5,10.7,2,1.5,0,3-.2,4.5-.6,2.1-.5,4.2-1.3,6.3-1.7,3-.6,6.2-.6,9.1-1.5,4.7-1.4,8.2,1,7.6,6-.3,2-.9,4.4-2.2,5.7-4.3,4.4-4.1,9-1.5,13.9.1.3.3.7.2.9-3.2,5.8,1.4,12-1,17.7-1.1,2.6-2.5,5.1-4.3,7.3-.6.7-2.8.9-3.9.5-5.8-2.4-11.6-4.8-17.2-7.7-3-1.6-5.7-3.6-8.2-6-3.1-2.7-5.9-5.7-8.4-9-2.1-3-3.3-6.6-4.9-10l1.2-.6h-.2ZM357.2,75.9c-.1.9-.3,1.7-.6,2.5l-1.2.6c-2.9-3.7-7.4-5.9-7.6-11.9-.2-7.1-1.3-14.2-2.2-21.4-.4-3,3.6-7.7,7-8.1,2.8-.3,5.4,2.3,5.4,5.9-.2,10.8-.5,21.5-.9,32.3h.1ZM390.4,379.3c-.8.2-2.6-.6-2.7-1.2-.2-2.1-.3-4.2-.1-6.3l.9-.5c1.3,1.8,2.5,3.7,3.5,5.6.2.5-.8,2.2-1.6,2.4h0ZM394.4,387.8c1.5,4.3,3,8.8,4.6,13.7-6.6-1.5-8.3-7.9-4.6-13.7h0ZM393.8,404.4c5.5,1.1,6.2,4.8,2.6,10.5-3.1-2.5-1.2-4.7.5-6.8-1.1-1.4-2.1-2.5-3.1-3.7h0ZM398.1,420.5c1.2,1.7,2.3,3.4,3.2,5.3.2.5-1.3,1.7-2.1,2.6l-4-4.3,2.8-3.7h.1ZM398.9,454.9c-.6.1-2-.9-2-1.3.2-5.1.5-10.3.8-15.4h1.5c-1.4-2.2-5.3-3.7-1.3-8.1.2,5.1,6.1,8.4,1.6,13.6-.3.4.9,1.9,1.2,2.9.5,2.2.9,4.4.9,6.7s-1.7,1.4-2.7,1.6h0Z"/>
  <path class="st1" d="M332.6,447.5l-4.9-1.5-3.3,4-1.6-.3v-7l6.5.4c.4-2.8,1.9-6.4,1-9.2-1.9-5.7,1.9-9.8,2.8-14.7.8-4,1.8-8,3-11.9.8-2.8,2.1-5.4,3.5-9.1l-5.1,1.4c-1.6-3.5-3.4-7-4.7-10.6-.5-1.4.1-3.3.7-4.7,1.2-3.2,3.1-6.2,3.8-9.5.6-2.5-.2-5.4,0-8.1.1-1.9.3-4.1,1.5-5.3,2.2-2.5,1.2-3.5-1.5-5-.9,3.9-3,6.1-6.9,7-3.3.7-2.3,3.3-1.3,5.8,1.3,3.1,2.2,6.4,3.2,9.4-3.4,0-5.7.4-7.8-.1-1.8-.5-3.4-1.9-5.1-3,1-1.1,1.8-2.4,2.5-3.7.7-1.5,1.1-3.2,1.2-4.9,0-2.1-1.3-4.4-1-6.4.4-3.3,1.8-6.4-2.2-8.5-.8-.4-.7-2.4-.9-3.7-.4-2.4-.8-4.7-1.2-7.1-.1-.7-.3-1.8,0-2.1,6.7-5.3,8-13.4,10.2-20.7,2.4-7.7,3.6-15.8,3.7-23.9,0-7.7-2.5-15.3-3.8-23-2.1-12.2-10.1-18.4-21.4-21.6-2.8-1-5.5-2.1-8.2-3.4,1.1-.8,2.3-1.8,3.6-2.7,2.7-1.9,3.5-4,2.8-7.7-.5-2.4,1.4-6,3.3-7.9s5.1-3,8-3.9c5.4-1.7,7.7-10.3,3.7-14.5-4.6-4.9-11.2-5-16.2,0-1.8,1.8-3.3,3.7-4.9,5.6-3.3-5.3-6.7-10.1-9.5-15.3-1.2-2.2-.9-5.3-1.3-7.9,0-.7,0-1.5-.1-2.2-1.9-5.6-4.1-11-5.9-16.6-.6-1.7-.5-3.7-.8-5.5-1.8-11.6-3.3-23.3-5.7-34.8-.6-2.9-4.2-5.1-6.6-7.6-.8-.9-1.7-1.6-2.7-2.2-1.5-.9-3.1-2.4-4.6-2.4-9.6-.2-19.2-2.4-28.5,2.3-7.4,3.7-15.3,6.7-24.3,10.7,1.9-2.6,3.2-4.6,4.7-6.3,3.3-3.8,2.7-8.5-1.7-10.9,0-.3,0-.7.1-.8,2-1.5,5.6-2.6,5.9-4.3.5-3.5-.4-7.4-1.3-11-.9-3.2-4.8-3.4-7.1-.5-.9,1.3-1.6,2.7-2.2,4.2-3.9-1.4-6.6-1.2-8,3.7-1.2,4-5,1-7.3.5-2.1-.5-3.9-2.6-6.8-4.8,4.4-4.7,8.5-9.5,13-14s5.2-3.6,7.4-5.7c8.6-8.1,19.6-11.5,30.4-15,5.6-1.8,11.7-2.4,17.5-3.8,4.5-1.1,8.8-2.8,13.2-4.1,2.3-.7,4.8-.9,7.1-1.7,2.1-.6,4.1-1.6,5.9-2.9,4.9-4.1,9.8-4.2,15.5-1.8,4,1.7,8.4,2.2,12.6,3.3,1.2.3,2.5.3,3.5.8,15.9,9.4,31.9,18.8,45.4,31.7,2,2,3.8,4.3,5.3,6.6,4.3,6.2,8.8,12.3,12.4,18.9,2,3.6,2.5,8.1,3.6,12.2.2.7-.2,1.7.2,2.1,4.5,4.7,1.4,10.2,1.7,15.3.1,1.7.5,3.4,1.1,4.9,1.4,3.4,4.1,6.5.7,10.3-.4.5,0,1.9.3,2.8,3.3,14.4,7.6,28.6,6.1,43.9-.6,5.8,1.6,11.9,2.6,17.8l2.1-.2c-.1-1.5-.2-3.1-.4-4.6-.2-2.2-1.2-4.6-.5-6.5.7-2.1,2.7-5.2,4.3-5.3,2.9-.1,5.7.9,7.7,2.9,3.5,3.9,4.2,9.1,4.2,14.4s.7,6.1,2.2,8.8c4.4,7.1,6.4,15,7.6,22.9,1.5,10.1-6,23.4-15.2,28-4.1,2.1-8.3,2.7-11.7-1.2-.5.3-1,.3-1,.5-2.2,9.1-5.7,18.2-6,27.4-.5,14.4,1.1,28.8,1.9,43.2.2,3.3.9,6.6,1.2,9.8.1,1.7,0,3.5-.3,5.2-.3,2-1,4-1.3,6-1.6,10.4-2.4,20.9-4.7,31.1-3.5,15.4-12.8,27.3-23.7,38.2-8.5,8.3-18.2,15.3-28.9,20.5-1,.6-1.9,1.3-2.8,2,2.6.1,4.2.3,5.7.3h115.5c1.4.1,2.7.2,4.1.2-1.2.4-2.4.7-3.6.9H111.7c-1.2-.1-2.4-.4-3.6-.9h72.5l2.3-11.7c.8,2.2,1.6,3.5,1.7,4.8.6,6.6.7,6.8,7.1,6.8h68.9c-10.1-6.8-20.8-13.3-30.7-20.7-10-7.5-17.8-17.5-22.7-29,3.6,3.2,7.2,6.4,10.9,9.6,13.5,11.6,27.6,22.2,44.6,28.4,17,6.2,34.3,5.8,51.5,1.4,5.6-1.4,10.7-4.6,15.9-7.3,1.1-.6,1.7-2.2,2.5-3.4,1.4-.3,3.2,0,4.3-.8,4.8-3.5,9.4-7.3,14-11.1.6-.5.9-1.6,1.3-2.4l-.9-1.2c-3.4,1.8-7.1,3.2-9.9,5.6-3.4,2.8-5.8,6.7-8.6,10l-.2-.4ZM304.2,162.4c.9,1.1,1.6,1.9,2.1,2.6,1.3,1.9,2.2,4.7,4,5.4,5.5,2.2,11.2,3.6,17,5.1.6.2,2.1-.4,2.2-.9.8-4.2,3.7-5.5,7.5-5.7.9-.2,1.7-.5,2.5-.9l-1-1-8-1.2v-1.2c3.2-.8,7.6-.2,7-5.6-.4-3.9-4.4-8.3-8.1-8.6-4.6-.4-6.8,2.5-8.3,6.2-.5,1.1-.3,2.7-1,3.4s-2.7,1.4-3.4.9c-3.4-2.1-3.7-5.5-1.4-8.8,6.4-8.8,23.2-7.1,28.4,3,1.3,2.4,2.5,4.7,6,4.7-.4-1.6-.8-2.8-1.3-4.7.6.3,1.3.7,2,.9.6.2,1.2.3,2.2.5-2.3-11.3-9.8-17.2-19.7-21l.5-1.3,17.6,1.7.3-1.6c-5.4-4.4-8.7-10.5-16.9-12.5-8.6-2.1-16.9-4.8-25.8-5.5-6.9-.6-12.1,2.2-17.3,5.6-.8.5-1.1,3-.6,4.2,2.1,5.3,6.6,7.1,12,7.9,6.2.9,6.6,2.1,3.3,7.4-3,4.9-7.1,9.3-5.6,15.8.5,2.3.7,4.7,1.2,7.1.2.5.4.9.8,1.3l2-3.6-.2.4ZM323.9,210.2l-2.2.7c1.2,15.1,11.2,27.6,13.7,42.3.9-15.8-4.1-29.7-11.5-43h0ZM401.3,257.9l1.4-.9-11.5-17.3c0,12.8,1.2,14.9,10.1,18.3h0ZM396.6,230.3l1.5-.3c1.3-3.5,2.4-7,.1-10.5-.7-1.1-2.4-1.5-3.6-2.2-.5,1.4-1.8,3-1.5,4.1.8,3.1,2.3,6,3.5,8.9h0ZM348.5,408.5c-3.4,2.9-4.7,5.8-3.6,9.2.3.9,2.6,2.1,3.2,1.8,2.4-1.4,2.5-8.9.4-10.9h0Z"/>
  <path class="st1" d="M354.5,19.7l-4.9,3.9c-.8-1.3-1.5-2.6-2.3-3.9h7.2,0Z"/>
  <path class="st1" d="M199.2,212c0-6.8,5.6-15.6,12.2-17,3.3-.7,7.1,1.5,10.7,2,1.5,0,3-.2,4.5-.6,2.1-.5,4.2-1.3,6.3-1.7,3-.6,6.2-.6,9.1-1.5,4.7-1.4,8.2,1,7.6,6-.3,2-.9,4.4-2.2,5.7-4.3,4.4-4.1,9-1.5,13.9.1.3.3.7.2.9-3.2,5.8,1.4,12-1,17.7-1.1,2.6-2.5,5.1-4.3,7.3-.6.7-2.8.9-3.9.5-5.8-2.4-11.6-4.8-17.2-7.7-3-1.6-5.7-3.6-8.2-6-3.1-2.7-5.9-5.7-8.4-9-2.1-3-3.3-6.6-4.9-10l1.2-.6h-.2Z"/>
  <path class="st1" d="M355.4,79c-2.9-3.7-7.4-5.9-7.6-11.9-.2-7.1-1.3-14.2-2.2-21.4-.4-3,3.6-7.7,7-8.1,2.8-.3,5.4,2.3,5.4,5.9-.2,10.8-.5,21.5-.9,32.3-.1.9-.3,1.7-.6,2.5l-1.2.6h.1Z"/>
  <path class="st1" d="M293.9,263.2c5.3-5.2,5.4-5.3,12-1.3,2.5,1.4,4.7,3.2,6.6,5.3,1.5,1.8.8,4-1.9,4.3-9.1.9-18.2,1.7-27.4,2.5-.4,0-.9,0-1.3.1l-5.8.2c.1-2.2.2-4.3.4-6.6.2-.7.5-1.3.8-2l3.8,1.8c1.8-2.2,3.7-4.3,5.7-6.3,2.8-2.5,4.9-.3,7,2h0Z"/>
  <path class="st1" d="M233.7,155.4c7.4,0,12.2,2.9,13,7,.2,1.1-.4,2.5-.7,3.7-1-.4-2.2-.5-3.1-1.2-8.6-7-12.2-6.3-18.5,3.2-.7,1.1-3.4,1.9-4.7,1.4-2.3-.9-2.6-3.2-.9-5.2,4.2-5.2,9.5-8.7,14.9-8.8h0Z"/>
  <path class="st1" d="M287.7,334.3l20.9-4c-1.7,2.6-3.2,5.2-5,7.4-.5.6-2.1.1-3.2.2-1.3.1-2.7.4-4,.6-1.2.1-2.6.5-3.4,0-1.9-1.3-3.6-2.7-5.3-4.2Z"/>
  <path class="st1" d="M399.2,438.2c-1.4-2.2-5.3-3.7-1.3-8.1.2,5.1,6.1,8.4,1.6,13.6-.3.4.9,1.9,1.2,2.9.5,2.2.9,4.4.9,6.7s-1.7,1.4-2.7,1.6c-.6.1-2-.9-2-1.3.2-5.1.5-10.3.8-15.4h1.5Z"/>
  <path class="st1" d="M328.3,385.6c-2.6.9-4.3,1.9-6.1,1.9s-3.2-1.1-4.8-1.8c.4-1,.5-2.6,1.2-2.8,1.8-.8,3.7-1.1,5.6-.9,1.3.1,2.2,1.8,4.1,3.6h0Z"/>
  <path class="st1" d="M399.1,401.5c-6.6-1.5-8.3-7.9-4.6-13.7,1.5,4.3,3,8.8,4.6,13.7Z"/>
  <path class="st1" d="M395.3,424.2l2.8-3.7c1.2,1.7,2.3,3.4,3.2,5.3.2.5-1.3,1.7-2.1,2.6l-4-4.3h.1Z"/>
  <path class="st1" d="M393.8,404.4c5.5,1.1,6.2,4.8,2.6,10.5-3.1-2.5-1.2-4.7.5-6.8l-3.1-3.7Z"/>
  <path class="st1" d="M388.4,371.2c1.3,1.8,2.5,3.7,3.5,5.6.2.5-.8,2.2-1.6,2.5s-2.6-.6-2.7-1.2c-.2-2.1-.3-4.2-.1-6.3l.9-.6h0Z"/>
  <path class="st1" d="M172.9,408.6l-3.6.9c.1-2.7.2-4.9.3-7.2,1.1.2,3.1.1,3.1.5.2,1.9.3,3.8.1,5.7h0Z"/>
  <path class="st1" d="M171.7,426.1c1.3,1.8,2.5,3.7,3.6,5.7.3.6-.7,1.9-1.2,2.8-.8-.5-2.2-.8-2.3-1.4-.5-2.2-.9-4.5-1.1-6.8l1-.3h0Z"/>
  <path class="st1" d="M263.5,314.5c-1.1-2.9-2.2-5.9-3.3-8.8l2.1-.8c1,3,2.1,5.9,3.2,8.9l-2,.7h0Z"/>
  <path class="st0" d="M304.2,162.4l-2,3.6c-.3-.4-.6-.9-.8-1.3-.4-2.4-.6-4.8-1.2-7.1-1.5-6.5,2.6-10.9,5.6-15.8,3.2-5.3,2.8-6.6-3.3-7.4-5.4-.8-9.9-2.5-12-7.9-.5-1.2-.2-3.7.6-4.2,5.2-3.4,10.5-6.2,17.3-5.6,8.9.7,17.2,3.4,25.8,5.5,8.1,2,11.5,8.1,16.9,12.5l-.3,1.6-17.6-1.7-.5,1.3c9.8,3.8,17.4,9.7,19.7,21-.9-.2-1.6-.3-2.2-.5-.7-.3-1.3-.6-2-.9.5,1.9.8,3.1,1.3,4.7-3.5,0-4.7-2.3-6-4.7-5.3-10-22-11.8-28.4-3-2.4,3.3-2,6.7,1.4,8.8.7.4,2.6-.2,3.4-.9s.5-2.3,1-3.4c1.5-3.7,3.7-6.6,8.3-6.2,3.7.3,7.7,4.7,8.1,8.6.6,5.4-3.7,4.7-6.9,5.6v1.2l7.9,1.2,1,1c-.8.4-1.6.7-2.5.9-3.7.3-6.6,1.5-7.5,5.7,0,.4-1.5,1-2.2.9-5.7-1.6-11.5-3-17-5.1-1.8-.7-2.7-3.6-4-5.4-.5-.8-1.2-1.5-2.1-2.7l.2-.3Z"/>
  <path class="st0" d="M323.8,210.1c7.3,13.3,12.4,27.3,11.5,43.1-2.5-14.8-12.5-27.1-13.7-42.3l2.2-.7h0Z"/>
  <path class="st1" d="M332.6,447.5c2.8-3.4,5.3-7.2,8.6-10.1,2.8-2.4,6.6-3.7,9.9-5.6l.9,1.2c-.4.8-.7,1.9-1.3,2.4-4.6,3.8-9.2,7.6-14,11.1-1,.8-2.8.6-4.3.8h0l.2.2Z"/>
  <path class="st0" d="M401.3,257.9c-9-3.3-10.2-5.5-10.1-18.3l11.5,17.3-1.4,1Z"/>
  <path class="st0" d="M396.6,230.3c-1.2-2.9-2.7-5.8-3.5-8.9-.3-1.2.9-2.7,1.5-4.1,1.2.7,2.9,1.2,3.6,2.2,2.3,3.5,1.2,7-.1,10.5l-1.5.3Z"/>
  <path class="st1" d="M348.5,408.5c2.1,2.1,2,9.6-.4,10.9-.6.3-2.9-.9-3.2-1.8-1.1-3.4.2-6.3,3.6-9.2h0Z"/>
  <path class="st0" d="M327,437.7c3.3,2.6,3.1,12-.6,13.6-.9.4-4.5-1.1-4.9-2.2-1.7-4.2.3-7.8,5.6-11.5h-.1Z"/>
  <path class="st0" d="M328.7,385.9c-2.5,2.9-11.5,2.7-13.2-.5-.4-.8,1-3.9,2.1-4.3,4.1-1.5,7.6.3,11.1,4.8Z"/>
  <rect class="st0" x="344.1" y="19.7" width="38.7" height="61.1"/>
  <rect class="st0" x="254.8" y="302.1" width="14.3" height="16.2"/>
  <rect class="st0" x="108" y="466.3" width="338.6" height="71.5"/>
  <path class="st1" d="M57.7,518.2c.9,0,1.6.7,1.6,1.6v33.3c0,.7.2,1.3.5,1.9.9,1.8,3.2,2.6,5,1.7,1.3-.7,2.1-2.1,2.1-3.5v-33.2c0-.9.7-1.6,1.6-1.6h20.4c.9,0,1.6.7,1.6,1.6v54.2c0,.9-.7,1.6-1.6,1.6h-14.9c-3.1.9-6.4,1.3-9.6,1.3-18,0-27.5-11.1-27.5-24.7v-32.4c0-.9.7-1.6,1.6-1.6h19.2v-.2Z"/>
  <path class="st1" d="M128,575.8c-.9,0-1.6-.7-1.6-1.6v-33.3c0-.7-.2-1.3-.5-1.9-.6-1.2-1.9-2-3.3-2.1-2.1,0-3.8,1.8-3.7,4v33.3c0,.9-.7,1.6-1.6,1.6h-21.8c-.9,0-1.6-.7-1.6-1.6h0v-54.3c0-.9.7-1.6,1.6-1.6h16.3c3.1-.8,6.4-1.3,9.6-1.2,18.1,0,27.5,11.1,27.5,24.7v32.4c0,.9-.7,1.6-1.6,1.6h-19.3Z"/>
  <path class="st1" d="M230.1,559.6c.7.6.8,1.6.3,2.3h0c-15.1,18.9-42.7,21.9-61.5,6.8-18.9-15.1-21.9-42.7-6.8-61.5,15.1-18.9,42.7-21.9,61.5-6.8,2.5,2,4.7,4.2,6.7,6.7.6.7.5,1.7-.2,2.3h0l-16.1,12.8c-.7.5-1.6.5-2.2-.2-3.7-4.2-9.6-7.5-15.6-7.5-11.1,0-20,8.9-20,20s8.9,20,20,20h0c6,0,11.9-3.2,15.7-7.6.6-.6,1.5-.7,2.2-.2l16.1,12.8h0Z"/>
  <path class="st1" d="M283.9,493.1l29.7,80v1.1c0,.9-.7,1.6-1.6,1.6h-20.6c-.7,0-1.3-.4-1.5-1.1l-4.5-12h-26.7l-4.5,12c-.2.6-.8,1.1-1.5,1.1h-20.6c-.9,0-1.6-.7-1.6-1.6s0,0,0,0v-1.1l29.7-80c.2-.6.8-1.1,1.5-1.1h20.6c.7,0,1.3.4,1.5,1.1h.1ZM277.8,542.1l-5.8-15.5-5.7,15.5h11.5Z"/>
  <path class="st1" d="M396.3,526.2v8.3c0,24.2-19.9,43.7-44.4,43.7s-44.4-19.6-44.4-43.7,19.9-43.8,44.4-43.8,26.9,6.4,35.3,17.3c.5.7.4,1.8-.3,2.3h0l-16.9,12.7c-.7.5-1.7.4-2.2-.3h0c-6.5-8.9-19-10.9-28-4.5-8.9,6.5-10.9,19-4.5,28,6.5,8.9,19,10.9,28,4.5,2.3-1.7,4.2-3.8,5.6-6.2h-19.8c-.9,0-1.6-.7-1.6-1.6v-16.7c0-.9.7-1.6,1.6-1.6h45.5c.9,0,1.6.7,1.6,1.6h0Z"/>
  <path class="st1" d="M399.7,574.2v-80.5c0-.9.7-1.6,1.6-1.6h49.2c.9,0,1.6.7,1.6,1.6v16.7c0,.9-.7,1.6-1.6,1.6h-27.4v11.9h23.6c.9,0,1.6.7,1.6,1.6v16.7c0,.9-.7,1.6-1.6,1.6h-23.6v11.9h27.4c.9,0,1.6.7,1.6,1.6v16.7c0,.9-.7,1.6-1.6,1.6h-49.2c-.9,0-1.6-.7-1.6-1.6h0v.2Z"/>
  <path class="st1" d="M481.3,518.4c3.9-.3,7.8,0,11.5,1.3v-26c0-.9.7-1.6,1.6-1.6h20.2c.9,0,1.6.7,1.6,1.6h0v81.7c0,.9-.7,1.6-1.6,1.6h-21.9c-2.9.8-5.9,1.3-9,1.3-16.5.7-30.5-12.1-31.2-28.7-.7-16.5,12.1-30.5,28.7-31.2h.1ZM483.9,556.7c4.7,0,8.4-3.8,8.4-8.4s-3.8-8.4-8.4-8.4-8.4,3.8-8.4,8.4,3.8,8.4,8.4,8.4h0Z"/>
  <path class="st1" d="M257.3,466.3s19.5,5.3,30.1,4.3c0,0,26-.3,36.7-4.7,10.7-4.4-66.8.3-66.8.3h0Z"/>
  <polygon class="st0" points="108 408 17.7 431.9 80.8 456.1 120.1 439.5 108 408"/>
  <rect class="st2" x="17.7" y="19.7" width="519.2" height="576.4" rx="32.5" ry="32.5"/>
</svg>