<svg id="Layer_1" data-name="Layer 1" xmlns="http://www.w3.org/2000/svg" viewBox="0 0 293.49 49.27"><defs><style>.cls-1{fill:#fff;}.cls-2{fill:#eb9722;}</style></defs><path class="cls-1" d="M77.07,133.47V161.8c0,8.86-5,19.32-20.41,19.32S36.25,170.66,36.25,161.8V133.47a.92.92,0,0,1,.92-.91h11.4a.92.92,0,0,1,.92.91v28.58c0,3.57,1.74,7.79,7.18,7.79s7.17-4.22,7.17-7.79V133.47a.92.92,0,0,1,.92-.91h11.4A.9.9,0,0,1,77.07,133.47Z" transform="translate(-36.25 -131.85)"/><path class="cls-1" d="M107.69,132.56H119.1a.92.92,0,0,1,.92.92v45.33a.92.92,0,0,1-.92.92H107.32a.92.92,0,0,1-.81-.46L91.72,153.13v25.69a.92.92,0,0,1-.92.92H79.4a.93.93,0,0,1-.93-.92V133.48a.92.92,0,0,1,.93-.92H91.21A.91.91,0,0,1,92,133l14.79,23.82V133.48A.92.92,0,0,1,107.69,132.56Z" transform="translate(-36.25 -131.85)"/><path class="cls-2" d="M165.31,170.61a.91.91,0,0,1,.16,1.29,24.64,24.64,0,1,1,0-30.88.92.92,0,0,1-.15,1.29l-9.09,7.2a.91.91,0,0,1-1.24-.09,12.18,12.18,0,0,0-8.79-4.21,11.28,11.28,0,1,0,0,22.55,12.16,12.16,0,0,0,8.82-4.25.92.92,0,0,1,1.25-.1Z" transform="translate(-36.25 -131.85)"/><path class="cls-2" d="M195.14,133.16l16.7,45.05a.81.81,0,0,1,0,.31v.3a.92.92,0,0,1-.92.92H199.39a.92.92,0,0,1-.86-.6L196,172.36H181l-2.54,6.78a.92.92,0,0,1-.86.6H166a.92.92,0,0,1-.92-.92v-.3a.91.91,0,0,1,.06-.32l16.69-45a.93.93,0,0,1,.87-.6h11.62A.93.93,0,0,1,195.14,133.16Zm-3.41,27.62-3.27-8.72-3.22,8.72Z" transform="translate(-36.25 -131.85)"/><path class="cls-2" d="M258,151.79v4.7a24.8,24.8,0,1,1-5.09-14.89.92.92,0,0,1-.18,1.29l-9.51,7.16a.92.92,0,0,1-1.28-.17,11.26,11.26,0,1,0,.64,12.25H231.41a.92.92,0,0,1-.92-.92v-9.42a.92.92,0,0,1,.92-.92H257A.91.91,0,0,1,258,151.79Z" transform="translate(-36.25 -131.85)"/><path class="cls-2" d="M259.35,178.82V133.48a.92.92,0,0,1,.92-.92H288a.92.92,0,0,1,.92.92v9.41a.92.92,0,0,1-.92.92h-15.4v6.71h13.3a.92.92,0,0,1,.92.92v9.42a.92.92,0,0,1-.92.92h-13.3v6.71H288a.92.92,0,0,1,.92.92v9.41a.92.92,0,0,1-.92.92H260.27A.92.92,0,0,1,259.35,178.82Z" transform="translate(-36.25 -131.85)"/><path class="cls-1" d="M329.74,156.15c0,16.58-9.23,23.59-20.61,23.59H291.22a.93.93,0,0,1-.93-.92V133.48a.92.92,0,0,1,.93-.92h17.91C320.51,132.56,329.74,139.56,329.74,156.15Zm-13.4,0c0-8.72-4.56-12.45-10.18-12.45H304a.45.45,0,0,0-.46.46v24a.45.45,0,0,0,.46.46h2.16C311.78,168.57,316.34,164.84,316.34,156.11Z" transform="translate(-36.25 -131.85)"/></svg>