<svg id="Layer_1" data-name="Layer 1" xmlns="http://www.w3.org/2000/svg" viewBox="0 0 554.66 615.76"><defs><style>.cls-1{fill:#eb9605;}.cls-2{fill:#fff;}</style></defs><rect class="cls-1" width="554.66" height="615.76" rx="25.44"/><rect class="cls-2" width="429.22" height="440.3"/><path class="cls-1" d="M449.93,44.57l-5.23,4.14q-1.24-2.07-2.48-4.14H352.51c1.72,4,3.72,7.85,5.08,11.94,1.91,5.76-.89,9.68-6.5,7.93-7.87-2.46-13,3.09-19.44,4.65-4.16,1-8.14,2.81-12.15,4.37a19.81,19.81,0,0,0-5.6,2.72q-13,10.81-25.8,21.93c-5.18,4.51-10.32,9.08-15.21,13.88-5.5,5.42-10.61,11.24-16.08,16.69-6.89,6.86-10.36,15.59-14.07,24.29a88.86,88.86,0,0,1-7.84,15.21c-4.49,6.59-4.85,14.17-6.4,21.47-2.52,11.91-1.21,23.77.25,35.74,1.57,12.84,2,25.83,2.9,38.76,0,.64-.23,1.48.08,1.89,3.9,5.1.53,9.94-.28,14.95-.87,5.31-.95,10.75-1.69,16.09-.87,6.33-2.1,12.62-3.15,18.93-2,12.21,1.15,22.09,12.08,29.09,6.44,4.13,11.92,9.62,19.82,11.57,1.64.4,2.37,5.27,3.15,8.17,1,3.62,1.52,7.35,2.35,11,.68,3.06,2,6,2.16,9.12.43,6.55.35,13.14.42,19.71.05,4.43,0,8.85,0,12.37-4.07,1.59-7.14,2.45-9.88,3.92-18,9.62-36,19.36-54.71,29.45a12.48,12.48,0,0,1-2.18,1.23c-3.27,1.38-6.07,3.64-9.05,5.55a36.31,36.31,0,0,1-4.14,2.18l0,0V524h77.5c.79-4,1.49-7.48,2.49-12.47.85,2.36,1.67,3.72,1.79,5.15.62,7.08.74,7.28,7.58,7.29h73.62c-10.84-7.26-22.22-14.17-32.81-22.14a77,77,0,0,1-24.26-31c3.88,3.4,7.73,6.85,11.65,10.21,14.42,12.4,29.51,23.67,47.65,30.33s36.61,6.21,55,1.52c5.94-1.52,11.43-4.94,17-7.75,1.17-.59,1.77-2.32,2.61-3.55L421.25,500l-3.52,4.22-1.76-.34v-7.46l6.91.46c.39-2.94,2-6.82,1.05-9.84-2-6.1,2-10.48,3-15.66a119.39,119.39,0,0,1,3.19-12.75c.88-3,2.19-5.78,3.74-9.76l-5.41,1.5c-1.72-3.78-3.67-7.43-5-11.29-.5-1.45.14-3.48.72-5.07,1.26-3.44,3.27-6.67,4.1-10.19.65-2.72-.24-5.78-.05-8.66.13-2,.37-4.39,1.56-5.7,2.4-2.65,1.24-3.73-1.63-5.34-.93,4.2-3.17,6.53-7.36,7.44-3.53.76-2.5,3.56-1.43,6.15,1.36,3.33,2.32,6.82,3.38,10-3.66,0-6.1.43-8.29-.13-1.95-.49-3.62-2.07-5.41-3.18a23.47,23.47,0,0,0,2.72-3.94,13.09,13.09,0,0,0,1.23-5.24c0-2.29-1.35-4.65-1.06-6.84.48-3.51,1.91-6.8-2.39-9.11-.82-.43-.74-2.61-1-4-.46-2.52-.89-5.05-1.27-7.58-.11-.75-.32-1.93.05-2.22,7.21-5.61,8.55-14.36,10.94-22.13a86.57,86.57,0,0,0,3.91-25.54c0-8.2-2.62-16.39-4.07-24.58-2.29-13-10.84-19.69-22.85-23.11a84.82,84.82,0,0,1-8.75-3.61c1.19-.89,2.47-1.9,3.8-2.85,2.89-2.07,3.75-4.29,3-8.2-.51-2.56,1.49-6.37,3.54-8.49s5.49-3.24,8.51-4.2c5.73-1.83,8.25-11,4-15.53-4.88-5.27-11.93-5.32-17.32,0-1.89,1.87-3.51,4-5.24,6-3.55-5.63-7.2-10.78-10.1-16.31-1.26-2.4-1-5.61-1.39-8.45a13.16,13.16,0,0,0-.16-2.38c-2.08-5.93-4.34-11.8-6.32-17.76-.62-1.85-.53-3.94-.84-5.91-1.94-12.41-3.53-24.89-6.13-37.16-.64-3.07-4.51-5.48-7-8.13a14.55,14.55,0,0,0-2.92-2.38c-1.59-1-3.27-2.53-4.94-2.56-10.21-.18-20.53-2.6-30.48,2.45-7.93,4-16.3,7.19-26,11.4,2.08-2.83,3.39-4.88,5-6.69,3.57-4.11,2.85-9.12-1.81-11.62,0-.3,0-.76.14-.89,2.18-1.55,6-2.82,6.25-4.63.56-3.77-.39-7.9-1.41-11.71-.93-3.46-5.15-3.65-7.63-.49a28.12,28.12,0,0,0-2.35,4.44c-4.15-1.48-7-1.33-8.55,3.94-1.28,4.31-5.35,1.09-7.83.49-2.27-.55-4.12-2.78-7.27-5.09,4.66-5.06,9.11-10.17,13.89-15,2.34-2.35,5.51-3.87,7.95-6.14,9.24-8.6,20.91-12.32,32.48-16,6-1.93,12.48-2.54,18.66-4.08,4.76-1.18,9.38-3,14.1-4.34,2.5-.73,5.15-.94,7.6-1.77A19.18,19.18,0,0,0,366,83.4c5.19-4.41,10.44-4.46,16.53-1.9,4.23,1.77,8.94,2.38,13.44,3.49,1.24.31,2.65.28,3.69.89,17,10,34.08,20.06,48.5,33.81a44.45,44.45,0,0,1,5.68,7.1c4.56,6.66,9.38,13.19,13.28,20.23,2.14,3.86,2.64,8.63,3.82,13,.2.72-.18,1.81.23,2.23,4.86,5,1.47,10.87,1.8,16.34a17,17,0,0,0,1.18,5.27c1.47,3.6,4.39,6.95.74,11-.46.5.06,2,.29,3,3.48,15.42,8.11,30.57,6.47,46.85-.62,6.19,1.75,12.68,2.76,19l2.23-.25c-.14-1.63-.26-3.26-.43-4.89-.23-2.34-1.23-4.92-.56-6.95.73-2.26,2.86-5.53,4.59-5.66a11.19,11.19,0,0,1,8.25,3.09c3.71,4.19,4.45,9.69,4.46,15.36a18.7,18.7,0,0,0,2.36,9.42c4.71,7.57,6.81,16,8.12,24.49,1.65,10.75-6.39,25-16.19,29.86-4.42,2.19-8.89,2.92-12.55-1.28-.58.27-1.07.35-1.11.54-2.3,9.73-6.1,19.42-6.46,29.23-.56,15.35,1.16,30.79,2,46.18.2,3.51,1,7,1.28,10.48a24.42,24.42,0,0,1-.31,5.59c-.33,2.18-1.06,4.29-1.39,6.46-1.67,11.07-2.61,22.29-5,33.19C470,475,460,487.77,448.41,499.39a117.56,117.56,0,0,1-30.91,21.88,36.7,36.7,0,0,0-3,2.16c2.83.15,4.47.31,6.1.31l123.43.11c1.45,0,2.89.08,4.33.13V44.57ZM252.42,453.38c1.17.17,3.27.15,3.36.55a31.89,31.89,0,0,1,.16,6.12l-3.89,1C252.19,458.18,252.3,455.78,252.42,453.38Zm4.78,34.46c-.87-.5-2.32-.84-2.51-1.52a64.14,64.14,0,0,1-1.21-7.23l1.11-.39a49.75,49.75,0,0,1,3.85,6.12C258.75,485.49,257.65,486.81,257.2,487.84Zm154.28-55.26a12.46,12.46,0,0,1,6-1c1.3.19,2.35,2,4.34,3.87-2.73.92-4.63,2.05-6.54,2.07-1.71,0-3.43-1.2-5.15-1.88C410.6,434.57,410.76,432.86,411.48,432.58Zm-16-48.27c-.5.6-2.25.13-3.42.26-1.43.15-2.85.47-4.28.6-1.24.12-2.77.54-3.67,0a51.37,51.37,0,0,1-5.63-4.45l22.37-4.3C399,379.22,397.45,381.92,395.5,384.31Zm-28.86-74.79a8.81,8.81,0,0,1,.9-2.09l4.06,1.94a82.74,82.74,0,0,1,6.07-6.75c3-2.72,5.25-.36,7.44,2.11,5.68-5.55,5.74-5.65,12.79-1.44A28,28,0,0,1,405,309c1.58,1.87.86,4.26-2,4.55-9.73,1-19.49,1.78-29.24,2.65-.48,0-.95.09-1.43.11l-6.17.2C366.32,314.16,366.42,311.83,366.64,309.52Zm-15.23,39.81q1.68,4.76,3.38,9.53l-2.14.7q-1.77-4.69-3.52-9.37ZM304.9,199c4.53-5.6,10.16-9.25,15.92-9.42,7.9.06,13,3.06,13.91,7.43.24,1.21-.48,2.62-.75,3.94-1.1-.4-2.4-.55-3.26-1.25-9.2-7.49-13-6.76-19.81,3.44-.77,1.16-3.66,2-5,1.46C303.51,203.63,303.15,201.17,304.9,199ZM284,250c-.06-7.31,6-16.7,13-18.15,3.49-.72,7.54,1.55,11.39,2.14a13.26,13.26,0,0,0,4.77-.68c2.26-.54,4.45-1.39,6.72-1.83,3.23-.62,6.62-.63,9.75-1.56,5.07-1.51,8.8,1.11,8.11,6.43-.27,2.14-1,4.68-2.38,6.14-4.57,4.69-4.38,9.57-1.65,14.9.14.28.34.71.23.91-3.45,6.16,1.45,12.8-1.09,18.92a33.24,33.24,0,0,1-4.57,7.81c-.64.8-3,1-4.16.49-6.2-2.55-12.4-5.18-18.36-8.24a41.91,41.91,0,0,1-8.75-6.4,61.06,61.06,0,0,1-9-9.57c-2.27-3.2-3.55-7.1-5.27-10.7ZM452.76,104.64a14.61,14.61,0,0,1-.62,2.7l-1.28.64c-3.05-4-7.91-6.29-8.1-12.72-.21-7.62-1.42-15.22-2.31-22.81-.38-3.24,3.86-8.27,7.52-8.65,3-.31,5.79,2.51,5.72,6.32C453.47,81.63,453.11,93.13,452.76,104.64Zm35.45,324.07c-.84.24-2.81-.63-2.91-1.24a42.51,42.51,0,0,1-.14-6.78l1-.57a47.22,47.22,0,0,1,3.74,6C490.15,426.65,489,428.49,488.21,428.71Zm4.35,9.09c1.56,4.64,3.16,9.37,4.95,14.68C490.45,450.93,488.62,444.06,492.56,437.8Zm-.73,17.74c5.83,1.14,6.58,5.16,2.75,11.19-3.29-2.65-1.25-5,.52-7.26C493.92,458,492.87,456.79,491.83,455.54Zm4.64,17.25a34.14,34.14,0,0,1,3.41,5.64c.22.56-1.41,1.86-2.19,2.82l-4.24-4.56Zm.83,36.68c-.65.11-2.16-.91-2.15-1.39.17-5.48.56-11,.89-16.44h1.61c-1.47-2.35-5.65-4-1.41-8.67.2,5.49,6.51,8.94,1.75,14.5-.34.39,1,2,1.24,3.15a35.65,35.65,0,0,1,1,7.16C500.21,508.39,498.39,509.29,497.3,509.47Z" transform="translate(-90.13 -44.57)"/><path class="cls-2" d="M426.53,501.6l-5.28-1.6-3.52,4.22-1.76-.34v-7.46l6.91.46c.39-2.94,2-6.82,1.05-9.84-2-6.1,2-10.47,3-15.66a119.39,119.39,0,0,1,3.19-12.75c.88-3,2.19-5.78,3.74-9.76l-5.41,1.5c-1.72-3.78-3.67-7.43-5-11.29-.5-1.45.14-3.48.72-5.07,1.26-3.44,3.27-6.67,4.1-10.19.65-2.72-.24-5.78-.05-8.66.13-2,.37-4.39,1.56-5.7,2.4-2.65,1.24-3.73-1.63-5.34-.93,4.2-3.17,6.53-7.36,7.44-3.53.76-2.5,3.56-1.43,6.15,1.36,3.33,2.32,6.82,3.38,10-3.66,0-6.1.43-8.29-.13-1.95-.49-3.62-2.07-5.41-3.18a23.47,23.47,0,0,0,2.72-3.94,13.09,13.09,0,0,0,1.23-5.24c0-2.29-1.35-4.65-1.06-6.84.48-3.51,1.91-6.8-2.39-9.11-.82-.43-.74-2.61-1-4-.46-2.52-.89-5.05-1.27-7.58-.11-.75-.32-1.93.05-2.22,7.21-5.61,8.55-14.36,10.94-22.13a86.57,86.57,0,0,0,3.91-25.54c0-8.2-2.62-16.39-4.07-24.58-2.29-13-10.84-19.69-22.85-23.11a84.82,84.82,0,0,1-8.75-3.61c1.19-.89,2.47-1.9,3.8-2.85,2.89-2.07,3.75-4.29,3-8.2-.51-2.56,1.49-6.37,3.54-8.49s5.49-3.24,8.51-4.2c5.73-1.83,8.25-11,4-15.53-4.88-5.27-11.93-5.32-17.32,0-1.89,1.87-3.51,4-5.24,6-3.55-5.63-7.2-10.78-10.1-16.31-1.26-2.4-1-5.61-1.39-8.45a13.16,13.16,0,0,0-.16-2.38c-2.08-5.93-4.34-11.8-6.32-17.76-.62-1.85-.53-3.94-.84-5.91-1.94-12.41-3.53-24.89-6.13-37.16-.64-3.07-4.51-5.48-7-8.13a14.55,14.55,0,0,0-2.92-2.38c-1.59-1-3.27-2.53-4.94-2.56-10.21-.18-20.53-2.6-30.48,2.45-7.93,4-16.3,7.19-26,11.4,2.08-2.83,3.39-4.88,5-6.69,3.57-4.11,2.85-9.12-1.81-11.62,0-.3,0-.76.14-.89,2.18-1.55,6-2.82,6.25-4.63.56-3.77-.39-7.9-1.41-11.71-.93-3.46-5.15-3.65-7.63-.49a28.12,28.12,0,0,0-2.35,4.44c-4.15-1.48-7-1.33-8.55,3.94-1.28,4.31-5.35,1.09-7.83.49-2.27-.55-4.12-2.78-7.27-5.09,4.66-5.06,9.11-10.17,13.89-15,2.34-2.35,5.51-3.87,7.95-6.14,9.24-8.6,20.91-12.32,32.48-16,6-1.93,12.48-2.54,18.66-4.08,4.76-1.18,9.38-3,14.1-4.34,2.5-.73,5.15-.94,7.6-1.77A19.18,19.18,0,0,0,366,83.4c5.19-4.41,10.44-4.46,16.53-1.9,4.23,1.77,8.94,2.38,13.44,3.49,1.24.31,2.65.28,3.69.89,17,10,34.08,20.06,48.5,33.81a44.45,44.45,0,0,1,5.68,7.1c4.56,6.66,9.38,13.19,13.28,20.23,2.14,3.86,2.64,8.63,3.82,13,.2.72-.18,1.81.23,2.23,4.86,5,1.47,10.87,1.8,16.34a17,17,0,0,0,1.18,5.27c1.47,3.6,4.39,6.95.74,11-.46.5.06,2,.29,3,3.48,15.42,8.11,30.57,6.47,46.85-.62,6.19,1.75,12.68,2.76,19l2.23-.25c-.14-1.63-.26-3.26-.43-4.89-.23-2.34-1.23-4.92-.56-6.95.73-2.26,2.86-5.53,4.59-5.66a11.19,11.19,0,0,1,8.25,3.09c3.71,4.19,4.45,9.69,4.46,15.36a18.7,18.7,0,0,0,2.36,9.42c4.71,7.57,6.81,16,8.12,24.49,1.65,10.75-6.39,25-16.19,29.86-4.42,2.19-8.89,2.92-12.55-1.28-.58.27-1.07.35-1.11.54-2.3,9.73-6.1,19.42-6.46,29.23-.56,15.35,1.16,30.79,2,46.18.2,3.51,1,7,1.28,10.48a24.42,24.42,0,0,1-.31,5.59c-.33,2.18-1.06,4.29-1.39,6.46-1.67,11.07-2.61,22.29-5,33.19C470,475,460,487.77,448.41,499.39a117.56,117.56,0,0,1-30.91,21.88,36.7,36.7,0,0,0-3,2.16c2.83.15,4.47.31,6.1.31l123.43.11c1.45,0,2.89.08,4.33.13a16.84,16.84,0,0,1-3.85.92q-95.13.08-190.26,0-81.87,0-163.76,0a16.84,16.84,0,0,1-3.85-.92h77.5l2.49-12.47c.85,2.36,1.67,3.72,1.79,5.15.62,7.08.74,7.28,7.58,7.29h73.62c-10.84-7.26-22.22-14.17-32.81-22.14a77,77,0,0,1-24.26-31c3.88,3.4,7.73,6.85,11.65,10.21,14.42,12.4,29.51,23.67,47.65,30.33s36.61,6.21,55,1.52c5.94-1.52,11.43-4.94,17-7.75,1.19-.6,1.78-2.37,2.66-3.59,1.54-.27,3.42-.07,4.54-.9,5.11-3.78,10-7.81,14.94-11.86.69-.57.94-1.68,1.4-2.55l-1-1.33c-3.58,1.95-7.61,3.38-10.62,6C432.18,493.91,429.55,498,426.53,501.6ZM396.17,197.06c1,1.21,1.66,2,2.25,2.82,1.41,2,2.36,5.07,4.25,5.82,5.85,2.32,12,3.81,18.14,5.48.68.18,2.24-.46,2.33-.93.87-4.48,3.93-5.83,8-6.1a10.33,10.33,0,0,0,2.68-.94l-1.12-1.12-8.56-1.3.08-1.23c3.38-.89,8-.18,7.37-5.95-.47-4.16-4.69-8.87-8.67-9.22-4.88-.42-7.26,2.7-8.9,6.64-.49,1.17-.27,2.85-1.05,3.62s-2.89,1.5-3.64,1c-3.63-2.27-4-5.91-1.46-9.44,6.84-9.38,24.74-7.54,30.37,3.19,1.36,2.61,2.66,5,6.39,5-.45-1.71-.81-3-1.34-5a21,21,0,0,0,2.09,1c.63.22,1.31.33,2.34.58-2.42-12.1-10.49-18.35-21-22.43l.56-1.36L446.08,169l.27-1.66c-5.74-4.7-9.34-11.23-18-13.32-9.16-2.21-18-5.08-27.57-5.87-7.33-.61-12.94,2.39-18.52,6-.87.56-1.17,3.22-.67,4.49,2.25,5.71,7,7.59,12.82,8.41,6.57.92,7,2.27,3.57,7.92-3.19,5.23-7.59,9.93-6,16.87.56,2.49.79,5.06,1.23,7.58a5.86,5.86,0,0,0,.81,1.44Zm21,51-2.37.76c1.25,16.17,12,29.45,14.61,45.21C430.42,277.19,425,262.27,417.15,248.05Zm82.74,51,1.46-1-12.3-18.51C489,293.24,490.32,295.52,499.89,299.07Zm-5-29.5,1.59-.33c1.34-3.69,2.55-7.49.11-11.21-.75-1.15-2.57-1.61-3.89-2.39-.58,1.49-1.92,3.18-1.59,4.42C492,263.34,493.59,266.42,494.9,269.57ZM443.44,459.9c-3.61,3.1-5,6.18-3.83,9.82.32.95,2.77,2.23,3.41,1.87C445.61,470.14,445.71,462.13,443.44,459.9Z" transform="translate(-90.13 -44.57)"/><path class="cls-2" d="M449.93,44.57l-5.23,4.14q-1.24-2.07-2.48-4.14Z" transform="translate(-90.13 -44.57)"/><path class="cls-2" d="M284,250c-.06-7.31,6-16.7,13-18.15,3.49-.72,7.54,1.55,11.39,2.14a13.26,13.26,0,0,0,4.77-.68c2.26-.54,4.45-1.39,6.72-1.83,3.23-.62,6.62-.63,9.75-1.56,5.07-1.51,8.8,1.11,8.11,6.43-.27,2.14-1,4.68-2.38,6.14-4.57,4.69-4.38,9.57-1.65,14.9.14.28.34.71.23.91-3.45,6.16,1.45,12.8-1.09,18.92a33.24,33.24,0,0,1-4.57,7.81c-.64.8-3,1-4.16.49-6.2-2.55-12.4-5.18-18.36-8.24a41.91,41.91,0,0,1-8.75-6.4,61.06,61.06,0,0,1-9-9.57c-2.27-3.2-3.55-7.1-5.27-10.7Z" transform="translate(-90.13 -44.57)"/><path class="cls-2" d="M450.86,108c-3.05-4-7.91-6.29-8.1-12.72-.21-7.62-1.42-15.22-2.31-22.81-.38-3.24,3.86-8.27,7.52-8.65,3-.31,5.79,2.51,5.72,6.32-.22,11.51-.58,23-.93,34.52a14.61,14.61,0,0,1-.62,2.7Z" transform="translate(-90.13 -44.57)"/><path class="cls-2" d="M385.11,304.73c5.68-5.55,5.74-5.65,12.79-1.44A28,28,0,0,1,405,309c1.58,1.87.86,4.26-2,4.55-9.73,1-19.49,1.78-29.24,2.65-.48,0-.95.09-1.43.11l-6.17.2c.15-2.31.25-4.64.47-7a8.81,8.81,0,0,1,.9-2.09l4.06,1.94a82.74,82.74,0,0,1,6.07-6.75C380.7,299.9,382.92,302.26,385.11,304.73Z" transform="translate(-90.13 -44.57)"/><path class="cls-2" d="M320.82,189.59c7.9.06,13,3.06,13.91,7.43.24,1.21-.48,2.62-.75,3.94-1.1-.4-2.4-.55-3.26-1.25-9.2-7.49-13-6.76-19.81,3.44-.77,1.16-3.66,2-5,1.46-2.43-1-2.79-3.44-1-5.6C309.43,193.41,315.06,189.76,320.82,189.59Z" transform="translate(-90.13 -44.57)"/><path class="cls-2" d="M378.5,380.71l22.37-4.3c-1.86,2.81-3.42,5.51-5.37,7.9-.5.6-2.25.13-3.42.26-1.43.15-2.85.47-4.28.6-1.24.12-2.77.54-3.67,0A51.37,51.37,0,0,1,378.5,380.71Z" transform="translate(-90.13 -44.57)"/><path class="cls-2" d="M497.65,491.65c-1.47-2.35-5.65-4-1.41-8.67.2,5.49,6.51,8.94,1.75,14.5-.34.39,1,2,1.24,3.15a35.65,35.65,0,0,1,1,7.16c0,.6-1.82,1.5-2.91,1.68-.65.11-2.17-.91-2.15-1.39.17-5.48.56-11,.89-16.44Z" transform="translate(-90.13 -44.57)"/><path class="cls-2" d="M421.87,435.43c-2.73.92-4.63,2.05-6.54,2.07-1.71,0-3.43-1.2-5.15-1.88.42-1.05.58-2.76,1.3-3a12.46,12.46,0,0,1,6-1C418.83,431.75,419.88,433.56,421.87,435.43Z" transform="translate(-90.13 -44.57)"/><path class="cls-2" d="M497.51,452.48c-7.06-1.55-8.89-8.42-4.95-14.68C494.12,442.44,495.72,447.17,497.51,452.48Z" transform="translate(-90.13 -44.57)"/><path class="cls-2" d="M493.45,476.69l3-3.9a34.14,34.14,0,0,1,3.41,5.64c.22.56-1.41,1.86-2.19,2.82Z" transform="translate(-90.13 -44.57)"/><path class="cls-2" d="M491.83,455.54c5.83,1.14,6.58,5.16,2.75,11.19-3.29-2.65-1.25-5,.52-7.26Z" transform="translate(-90.13 -44.57)"/><path class="cls-2" d="M486.15,420.12a47.22,47.22,0,0,1,3.74,6c.26.56-.89,2.4-1.68,2.62s-2.81-.63-2.91-1.24a42.51,42.51,0,0,1-.14-6.78Z" transform="translate(-90.13 -44.57)"/><path class="cls-2" d="M255.94,460.05l-3.89,1c.14-2.86.25-5.26.37-7.66,1.17.17,3.27.15,3.36.55A31.89,31.89,0,0,1,255.94,460.05Z" transform="translate(-90.13 -44.57)"/><path class="cls-2" d="M254.59,478.7a49.75,49.75,0,0,1,3.85,6.12c.31.67-.79,2-1.24,3-.87-.5-2.32-.84-2.51-1.52a66.5,66.5,0,0,1-1.22-7.23Z" transform="translate(-90.13 -44.57)"/><path class="cls-2" d="M352.65,359.56q-1.77-4.69-3.52-9.37l2.28-.86q1.68,4.76,3.38,9.53Z" transform="translate(-90.13 -44.57)"/><path class="cls-1" d="M396.17,197.06l-2.17,3.8a5.86,5.86,0,0,1-.81-1.44c-.44-2.52-.67-5.09-1.23-7.58-1.57-6.94,2.83-11.64,6-16.87,3.46-5.65,3-7-3.57-7.92-5.81-.82-10.57-2.7-12.82-8.41-.5-1.27-.2-3.93.67-4.49,5.58-3.6,11.19-6.6,18.52-6,9.54.79,18.41,3.66,27.57,5.87,8.66,2.09,12.26,8.62,18,13.32l-.27,1.66-18.79-1.79-.56,1.36c10.47,4.08,18.54,10.33,21,22.43-1-.25-1.71-.36-2.34-.58a21,21,0,0,1-2.09-1c.53,2,.89,3.33,1.34,5-3.73-.08-5-2.42-6.39-5-5.63-10.73-23.53-12.57-30.37-3.19-2.58,3.53-2.17,7.17,1.46,9.44.75.48,2.82-.21,3.64-1s.56-2.45,1.05-3.62c1.64-3.94,4-7.06,8.9-6.64,4,.35,8.2,5.06,8.67,9.22.66,5.77-4,5.06-7.37,5.95l-.08,1.23,8.56,1.3,1.12,1.12a10.33,10.33,0,0,1-2.68.94c-4,.27-7.1,1.62-8,6.1-.09.47-1.65,1.11-2.33.93-6.1-1.67-12.29-3.16-18.14-5.48-1.89-.75-2.84-3.83-4.25-5.82C397.83,199.05,397.14,198.27,396.17,197.06Z" transform="translate(-90.13 -44.57)"/><path class="cls-1" d="M417.15,248.05c7.82,14.22,13.27,29.14,12.24,46-2.62-15.76-13.36-29-14.61-45.21Z" transform="translate(-90.13 -44.57)"/><path class="cls-2" d="M426.53,501.6c3-3.62,5.65-7.69,9.17-10.74,3-2.6,7-4,10.62-6l1,1.33c-.46.87-.71,2-1.4,2.55-4.91,4.05-9.83,8.08-14.94,11.86-1.12.83-3,.63-4.54.9Z" transform="translate(-90.13 -44.57)"/><path class="cls-1" d="M499.89,299.07c-9.57-3.55-10.92-5.83-10.84-19.53l12.3,18.51Z" transform="translate(-90.13 -44.57)"/><path class="cls-1" d="M494.9,269.57c-1.31-3.15-2.91-6.23-3.78-9.51-.33-1.24,1-2.93,1.59-4.42,1.32.78,3.14,1.24,3.89,2.39,2.44,3.72,1.23,7.52-.11,11.21Z" transform="translate(-90.13 -44.57)"/><path class="cls-2" d="M443.44,459.9c2.27,2.23,2.17,10.24-.42,11.69-.64.36-3.09-.92-3.41-1.87C438.41,466.08,439.83,463,443.44,459.9Z" transform="translate(-90.13 -44.57)"/><path class="cls-1" d="M420.5,491.1c3.52,2.78,3.36,12.77-.66,14.57-1,.45-4.8-1.14-5.28-2.33C412.7,498.81,414.89,495,420.5,491.1Z" transform="translate(-90.13 -44.57)"/><path class="cls-1" d="M422.3,435.76c-2.68,3.05-12.33,2.92-14.08-.57-.43-.86,1.11-4.16,2.26-4.58C414.86,429,418.57,430.9,422.3,435.76Z" transform="translate(-90.13 -44.57)"/><rect class="cls-1" x="348.61" width="41.32" height="65.27"/><rect class="cls-1" x="253.21" y="301.66" width="15.28" height="17.33"/><rect class="cls-1" x="96.47" y="477.07" width="361.72" height="76.34"/><path class="cls-2" d="M132.87,577.11a1.73,1.73,0,0,1,1.68,1.73v35.53a4.27,4.27,0,0,0,.52,2,4,4,0,0,0,7.57-2V578.86a1.74,1.74,0,0,1,1.74-1.74l21.79-.08a1.74,1.74,0,0,1,1.74,1.74v57.88a1.74,1.74,0,0,1-1.74,1.74l-15.91.07A38.83,38.83,0,0,1,140,639.78c-19.27,0-29.34-11.81-29.34-26.38V578.83a1.74,1.74,0,0,1,1.74-1.74Z" transform="translate(-90.13 -44.57)"/><path class="cls-2" d="M207.94,638.63a1.73,1.73,0,0,1-1.67-1.73V601.32a4.16,4.16,0,0,0-.53-2,4.09,4.09,0,0,0-3.56-2.21,4.13,4.13,0,0,0-4,4.23V636.9a1.74,1.74,0,0,1-1.74,1.75H173.16a1.74,1.74,0,0,1-1.74-1.75v-58a1.74,1.74,0,0,1,1.74-1.75h17.36a38.48,38.48,0,0,1,10.29-1.32c19.3,0,29.39,11.83,29.39,26.43v34.61a1.75,1.75,0,0,1-1.75,1.75Z" transform="translate(-90.13 -44.57)"/><path class="cls-2" d="M317,621.35a1.74,1.74,0,0,1,.29,2.45,46.75,46.75,0,1,1-.08-58.59,1.73,1.73,0,0,1-.28,2.45l-17.24,13.66a1.71,1.71,0,0,1-2.36-.19c-4-4.54-10.24-8-16.66-8a21.39,21.39,0,1,0,0,42.78c6.46,0,12.72-3.47,16.73-8.07a1.73,1.73,0,0,1,2.37-.19Z" transform="translate(-90.13 -44.57)"/><path class="cls-2" d="M374.5,550.29l31.69,85.47a1.72,1.72,0,0,1,.1.6v.56a1.75,1.75,0,0,1-1.75,1.74h-22a1.73,1.73,0,0,1-1.63-1.14l-4.76-12.85H347.59l-4.82,12.86a1.75,1.75,0,0,1-1.63,1.14h-22a1.74,1.74,0,0,1-1.74-1.75v-.56a1.81,1.81,0,0,1,.1-.61l31.68-85.46a1.75,1.75,0,0,1,1.63-1.14h22.05A1.75,1.75,0,0,1,374.5,550.29ZM368,602.69l-6.19-16.53-6.12,16.53Z" transform="translate(-90.13 -44.57)"/><path class="cls-2" d="M494.58,585.65v8.9c0,25.81-21.23,46.73-47.41,46.73s-47.41-20.92-47.41-46.73,21.23-46.74,47.41-46.74a47.53,47.53,0,0,1,37.75,18.5,1.75,1.75,0,0,1-.35,2.45l-18,13.58a1.71,1.71,0,0,1-2.42-.33,21.38,21.38,0,1,0,1.21,23.24H444.23a1.75,1.75,0,0,1-1.75-1.75V585.65a1.75,1.75,0,0,1,1.75-1.75h48.61A1.73,1.73,0,0,1,494.58,585.65Z" transform="translate(-90.13 -44.57)"/><path class="cls-2" d="M498.13,636.91v-86a1.75,1.75,0,0,1,1.75-1.75h52.59a1.75,1.75,0,0,1,1.75,1.75v17.86a1.75,1.75,0,0,1-1.75,1.75H523.25v12.72h25.23a1.75,1.75,0,0,1,1.75,1.75v17.86a1.75,1.75,0,0,1-1.75,1.75H523.25v12.72h29.22a1.75,1.75,0,0,1,1.75,1.75v17.85a1.75,1.75,0,0,1-1.75,1.75H499.88A1.75,1.75,0,0,1,498.13,636.91Z" transform="translate(-90.13 -44.57)"/><path class="cls-2" d="M585.38,577.3a32.2,32.2,0,0,1,12.31,1.35V550.89a1.74,1.74,0,0,1,1.74-1.74h21.62a1.73,1.73,0,0,1,1.74,1.74v87.32a1.73,1.73,0,0,1-1.74,1.73H597.68v-.13a31.7,31.7,0,0,1-9.6,1.47,32,32,0,0,1-2.7-64Zm2.71,40.91a9,9,0,1,0-9-9A9,9,0,0,0,588.09,618.21Z" transform="translate(-90.13 -44.57)"/><path class="cls-2" d="M346.11,521.65s20.86,5.62,32.16,4.63c0,0,27.77-.28,39.23-5S346.11,521.65,346.11,521.65Z" transform="translate(-90.13 -44.57)"/><polygon class="cls-1" points="96.47 414.85 0 440.31 67.42 466.21 109.36 448.46 96.47 414.85"/><rect class="cls-1" width="35.99" height="515.25"/><rect class="cls-1" x="208.68" y="-70.75" width="35.99" height="266.64" transform="translate(199.12 -208.68) rotate(90)"/></svg>